<svg
  id="visual"
  viewBox="0 0 500 500"
  width="500"
  height="500"
  xmlns="http://www.w3.org/2000/svg"
  version="1.1"
>
  <g transform="translate(258.9561842708665 238.50577167339787)">
    <path id="blob1"
      d="M101.8 -107.9C133.8 -69.8 162.9 -34.9 164.4 1.5C165.9 37.9 139.9 75.9 107.9 115.1C75.9 154.2 37.9 194.6 -10.5 205.1C-58.9 215.6 -117.9 196.2 -150.5 157C-183.2 117.9 -189.6 58.9 -174.9 14.7C-160.1 -29.5 -124.3 -58.9 -91.6 -97.1C-58.9 -135.3 -29.5 -182.1 2.7 -184.8C34.9 -187.6 69.8 -146.1 101.8 -107.9"
      fill="#BB004B"
    ></path>
  </g>

  <g transform="translate(250.45036202864304 241.54029938871906)" style="visibility: hidden">
    <path id="blob2"
      d="M86.1 -84.5C108.6 -63.6 121.8 -31.8 135.4 13.6C148.9 58.9 162.9 117.9 140.4 140C117.9 162.2 58.9 147.6 7.7 139.9C-43.6 132.3 -87.2 131.5 -113.4 109.4C-139.5 87.2 -148.3 43.6 -151.8 -3.5C-155.3 -50.7 -153.7 -101.4 -127.5 -122.2C-101.4 -143 -50.7 -134 -9.4 -124.6C31.8 -115.2 63.6 -105.3 86.1 -84.5"
      fill="#BB004B"
    ></path>
  </g>
</svg>